<?xml version="1.0" encoding="UTF-8" ?>
<!DOCTYPE svg PUBLIC "-//W3C//DTD SVG 1.1//EN" "http://www.w3.org/Graphics/SVG/1.1/DTD/svg11.dtd">
<svg width="1624pt" height="524pt" viewBox="0 0 1624 524" version="1.1" xmlns="http://www.w3.org/2000/svg">
<g id="#ffffffff">
<path fill="#ffffff" opacity="1.00" d=" M 515.64 166.78 C 522.87 166.76 530.11 166.92 537.34 166.78 C 537.38 166.90 537.46 167.16 537.51 167.28 C 542.08 167.48 546.92 168.54 550.34 171.79 C 555.12 176.14 556.59 183.24 555.11 189.37 C 552.53 195.30 546.42 199.55 539.99 200.07 C 531.85 200.76 523.64 200.44 515.48 200.44 C 515.48 189.22 515.15 177.99 515.64 166.78 Z" />
<path fill="#ffffff" opacity="1.00" d=" M 864.80 170.58 C 873.47 170.63 882.92 169.04 890.90 173.26 C 902.97 179.36 903.57 198.99 892.35 206.24 C 887.54 210.45 880.82 209.31 874.98 209.92 C 871.57 210.42 868.09 210.47 864.78 209.48 C 864.81 196.51 864.85 183.55 864.80 170.58 Z" />
<path fill="#ffffff" opacity="1.00" d=" M 183.80 177.74 C 184.14 177.76 184.84 177.78 185.19 177.80 C 187.97 184.60 189.26 191.87 191.50 198.85 C 195.09 211.50 199.92 223.78 202.82 236.62 C 199.21 236.81 195.62 237.39 191.99 237.17 C 183.69 236.44 175.34 236.97 167.02 236.73 C 167.67 231.68 169.50 226.90 170.86 222.02 C 175.20 207.27 180.06 192.67 183.80 177.74 Z" />
<path fill="#ffffff" opacity="1.00" d=" M 702.70 196.41 C 704.81 189.93 706.02 183.11 708.97 176.93 C 712.39 186.78 714.85 196.95 718.32 206.80 C 721.02 216.80 724.80 226.52 726.97 236.66 C 715.02 236.89 703.05 236.81 691.09 236.73 C 693.88 223.01 699.32 209.99 702.70 196.41 Z" />
<path fill="#ffffff" opacity="1.00" d=" M 515.59 234.62 C 523.38 234.64 531.17 234.67 538.96 234.70 C 545.86 234.71 553.28 236.64 558.08 241.88 C 561.51 245.32 561.24 250.58 561.36 255.08 C 560.45 257.74 559.85 260.64 557.98 262.84 C 556.02 265.34 553.15 266.82 550.37 268.21 C 549.28 268.53 548.20 268.88 547.13 269.24 C 536.69 271.05 526.06 270.22 515.52 270.39 C 515.46 258.47 515.32 246.54 515.59 234.62 Z" />
<path fill="#ffffff" opacity="1.00" d=" M 719.80 422.82 C 724.00 420.43 730.64 423.67 729.72 429.05 C 728.86 430.16 728.03 431.29 727.21 432.42 C 725.08 432.84 722.96 433.35 720.79 433.37 C 718.42 430.58 719.86 426.23 719.80 422.82 Z" />
<path fill="#ffffff" opacity="1.00" d=" M 1106.09 430.97 C 1107.12 426.70 1111.12 423.62 1115.56 424.03 C 1115.87 430.31 1115.77 436.60 1115.53 442.88 C 1108.92 444.20 1104.13 436.83 1106.09 430.97 Z" />
<path fill="#ffffff" opacity="1.00" d=" M 1127.52 424.01 C 1131.01 424.20 1134.76 425.68 1136.25 429.09 C 1137.07 431.98 1137.08 435.09 1136.46 438.02 C 1134.92 441.44 1131.15 443.16 1127.52 442.90 C 1127.34 436.60 1127.22 430.30 1127.52 424.01 Z" />
<path fill="#ffffff" opacity="1.00" d=" M 1051.00 425.13 C 1053.75 429.89 1055.21 435.26 1055.85 440.70 C 1052.69 440.82 1049.54 440.84 1046.40 440.60 C 1047.75 435.39 1049.33 430.24 1051.00 425.13 Z" />
</g>
<g id="#0396bfff">
<path fill="#0396bf" opacity="1.00" d=" M 176.36 48.58 C 187.52 44.56 200.67 50.93 205.06 61.78 C 209.40 71.56 205.41 83.78 196.73 89.76 C 191.42 93.51 184.50 94.41 178.22 93.17 C 166.12 90.19 157.35 76.10 161.57 64.04 C 163.80 57.04 169.32 50.91 176.36 48.58 Z" />
<path fill="#0396bf" opacity="1.00" d=" M 1192.05 143.90 C 1190.22 140.18 1187.38 136.79 1187.08 132.50 C 1206.43 132.74 1225.78 132.38 1245.13 132.60 C 1249.85 141.03 1253.16 150.14 1257.42 158.80 C 1263.95 172.36 1270.15 186.07 1276.61 199.67 C 1277.11 199.67 1278.11 199.67 1278.61 199.67 C 1287.10 177.38 1296.10 155.26 1303.77 132.67 C 1322.10 132.49 1340.45 132.44 1358.78 132.62 C 1354.84 142.23 1350.42 151.65 1345.99 161.04 C 1324.68 208.97 1302.84 256.64 1281.44 304.53 C 1263.62 304.08 1245.79 304.49 1227.97 304.43 C 1230.55 296.74 1234.82 289.77 1238.25 282.45 C 1242.33 274.76 1245.93 266.82 1250.05 259.15 C 1251.38 257.13 1250.02 254.90 1249.06 253.08 C 1239.87 236.02 1231.07 218.75 1222.20 201.52 C 1211.84 182.48 1202.17 163.07 1192.05 143.90 Z" />
<path fill="#0396bf" opacity="1.00" d=" M 1385.52 133.20 C 1390.27 132.13 1395.15 132.65 1399.98 132.54 C 1412.16 132.39 1424.33 132.59 1436.52 132.56 C 1440.61 145.12 1443.50 158.03 1447.33 170.67 C 1449.49 177.86 1451.75 185.03 1453.67 192.29 C 1457.12 204.90 1461.48 217.25 1464.80 229.90 C 1464.92 230.72 1465.33 231.37 1466.03 231.83 C 1466.98 230.78 1467.22 229.34 1467.65 228.04 C 1473.86 204.16 1481.48 180.68 1487.86 156.85 C 1489.11 152.15 1490.64 147.53 1491.81 142.81 L 1492.21 142.13 C 1493.19 139.03 1492.87 134.67 1495.76 132.68 C 1512.31 132.32 1528.89 132.74 1545.45 132.49 C 1548.08 153.69 1551.83 174.72 1554.49 195.92 C 1559.78 232.11 1564.87 268.32 1570.59 304.43 C 1554.30 304.22 1538.00 304.55 1521.71 304.40 C 1518.78 280.62 1516.12 256.80 1512.85 233.07 C 1512.14 225.99 1511.47 218.90 1510.25 211.88 C 1506.77 219.63 1504.82 227.91 1502.29 235.98 C 1495.49 258.75 1489.03 281.62 1482.44 304.45 C 1473.26 304.43 1464.08 304.20 1454.91 304.46 C 1452.92 304.45 1450.90 304.60 1449.00 304.09 C 1442.61 282.11 1436.12 260.13 1429.69 238.14 C 1426.92 229.65 1425.53 220.70 1421.86 212.52 C 1419.78 219.13 1419.70 226.11 1418.63 232.90 C 1415.85 256.75 1412.10 280.48 1409.46 304.34 C 1393.40 304.37 1377.35 304.40 1361.29 304.48 C 1361.87 295.24 1363.77 286.15 1364.89 276.97 C 1368.90 251.02 1372.49 225.01 1376.40 199.05 C 1379.61 177.13 1383.03 155.22 1385.52 133.20 Z" />
<path fill="#0396bf" opacity="1.00" d=" M 1175.36 230.63 C 1188.04 226.35 1202.88 235.68 1204.73 248.86 C 1206.64 256.71 1203.32 265.20 1197.11 270.20 C 1191.40 275.90 1182.41 277.34 1174.86 275.15 C 1168.20 272.67 1162.54 267.26 1160.32 260.44 C 1155.57 248.63 1162.94 233.77 1175.36 230.63 Z" />
</g>
<g id="#663e21ff">
<path fill="#663e21" opacity="1.00" d=" M 153.25 135.11 C 153.78 134.01 154.44 132.41 155.96 132.68 C 175.76 132.58 195.57 132.68 215.37 132.59 C 227.82 169.71 241.56 206.38 254.35 243.39 C 261.71 263.75 269.15 284.10 275.79 304.70 C 259.18 304.48 242.56 304.54 225.94 304.62 C 224.33 304.52 221.95 304.80 221.47 302.74 C 218.53 293.70 216.07 284.52 213.21 275.45 C 204.21 274.23 195.10 275.01 186.04 274.83 C 176.22 275.09 166.35 274.26 156.57 275.36 C 153.28 284.98 150.56 294.78 147.06 304.32 C 129.14 304.56 111.20 304.76 93.29 304.31 C 96.76 293.00 100.92 281.91 105.06 270.84 C 121.12 225.60 137.22 180.36 153.25 135.11 M 183.80 177.74 C 180.06 192.67 175.20 207.27 170.86 222.02 C 169.50 226.90 167.67 231.68 167.02 236.73 C 175.34 236.97 183.69 236.44 191.99 237.17 C 195.62 237.39 199.21 236.81 202.82 236.62 C 199.92 223.78 195.09 211.50 191.50 198.85 C 189.26 191.87 187.97 184.60 185.19 177.80 C 184.84 177.78 184.14 177.76 183.80 177.74 Z" />
<path fill="#663e21" opacity="1.00" d=" M 389.82 133.77 C 390.57 132.75 391.81 132.61 392.98 132.63 C 411.65 132.55 430.33 132.76 449.00 132.46 C 447.13 136.29 444.03 139.27 441.45 142.60 C 422.74 166.57 403.83 190.40 385.01 214.29 C 383.00 216.59 386.04 218.78 387.23 220.62 C 408.77 248.40 429.71 276.63 451.02 304.58 C 431.32 304.61 411.62 304.47 391.92 304.58 C 389.58 304.84 387.31 303.87 386.19 301.75 C 372.41 280.28 357.59 259.49 343.68 238.09 C 343.12 236.89 341.92 236.40 340.75 236.02 C 340.67 258.85 341.01 281.69 340.67 304.52 C 323.86 304.44 307.04 304.67 290.23 304.52 C 290.43 247.21 290.15 189.90 290.38 132.59 C 307.13 132.72 323.87 132.55 340.62 132.67 C 341.01 152.78 340.71 172.90 340.66 193.01 C 340.62 195.57 341.14 198.08 341.67 200.57 C 354.55 182.55 367.32 164.45 380.32 146.51 C 383.43 142.23 386.17 137.63 389.82 133.77 Z" />
<path fill="#663e21" opacity="1.00" d=" M 679.12 132.58 C 699.19 132.69 719.26 132.54 739.32 132.64 C 743.84 144.06 747.27 155.86 751.51 167.38 C 762.79 197.94 773.11 228.85 784.43 259.39 C 787.70 269.37 791.41 279.20 794.79 289.14 C 796.47 294.31 798.85 299.25 799.99 304.60 C 782.16 304.34 764.32 304.75 746.50 304.51 C 743.11 294.92 740.40 285.12 737.36 275.42 C 724.30 274.11 711.14 275.10 698.04 274.85 C 692.25 275.07 686.40 274.29 680.68 275.40 C 677.39 285.01 674.68 294.81 671.22 304.36 C 655.14 304.76 639.06 304.41 622.99 304.62 C 621.09 304.66 619.16 304.65 617.42 303.84 C 623.52 285.67 630.56 267.84 636.80 249.71 C 649.39 214.01 662.18 178.38 674.85 142.71 C 676.03 139.24 676.85 135.54 679.12 132.58 M 702.70 196.41 C 699.32 209.99 693.88 223.01 691.09 236.73 C 703.05 236.81 715.02 236.89 726.97 236.66 C 724.80 226.52 721.02 216.80 718.32 206.80 C 714.85 196.95 712.39 186.78 708.97 176.93 C 706.02 183.11 704.81 189.93 702.70 196.41 Z" />
<path fill="#663e21" opacity="1.00" d=" M 974.54 132.78 C 990.92 132.53 1007.31 132.71 1023.69 132.53 C 1023.71 164.37 1023.61 196.21 1023.63 228.04 C 1023.53 228.97 1023.32 230.83 1023.22 231.76 C 1027.25 228.14 1029.40 223.01 1032.41 218.59 C 1045.49 197.99 1058.91 177.60 1072.04 157.03 C 1077.50 148.96 1082.18 140.35 1088.20 132.67 C 1104.66 132.52 1121.12 132.71 1137.58 132.59 C 1137.54 189.90 1137.71 247.20 1137.49 304.51 C 1121.17 304.50 1104.85 304.71 1088.53 304.45 C 1088.23 271.78 1088.69 239.09 1088.41 206.42 C 1084.13 211.31 1081.20 217.16 1077.63 222.55 C 1065.28 241.62 1053.25 260.91 1040.89 279.98 C 1035.58 288.08 1030.99 296.64 1025.27 304.45 C 1008.37 304.73 991.46 304.52 974.56 304.49 C 974.60 247.25 974.50 190.01 974.54 132.78 Z" />
<path fill="#663e21" opacity="1.00" d=" M 464.81 147.99 C 464.85 142.85 464.46 137.67 465.38 132.58 C 494.91 132.72 524.43 132.50 553.96 132.65 C 565.18 132.83 577.12 134.59 586.13 141.83 C 600.60 152.81 606.07 173.80 599.40 190.57 C 594.94 200.27 586.14 207.36 576.72 211.97 C 576.61 212.27 576.41 212.87 576.30 213.17 C 590.09 216.25 602.46 225.52 608.51 238.37 C 613.02 249.86 612.86 263.13 608.30 274.57 C 603.74 284.80 596.08 293.94 585.88 298.86 C 575.39 303.91 563.44 304.47 551.99 304.56 C 523.10 304.45 494.21 304.57 465.31 304.57 C 464.29 295.42 465.08 286.19 464.81 277.01 C 464.81 274.65 464.81 272.30 464.82 269.95 C 464.81 229.29 464.85 188.64 464.81 147.99 M 515.64 166.78 C 515.15 177.99 515.48 189.22 515.48 200.44 C 523.64 200.44 531.85 200.76 539.99 200.07 C 546.42 199.55 552.53 195.30 555.11 189.37 C 556.59 183.24 555.12 176.14 550.34 171.79 C 546.92 168.54 542.08 167.48 537.51 167.28 C 537.46 167.16 537.38 166.90 537.34 166.78 C 530.11 166.92 522.87 166.76 515.64 166.78 M 515.59 234.62 C 515.32 246.54 515.46 258.47 515.52 270.39 C 526.06 270.22 536.69 271.05 547.13 269.24 C 548.20 268.88 549.28 268.53 550.37 268.21 C 553.15 266.82 556.02 265.34 557.98 262.84 C 559.85 260.64 560.45 257.74 561.36 255.08 C 561.24 250.58 561.51 245.32 558.08 241.88 C 553.28 236.64 545.86 234.71 538.96 234.70 C 531.17 234.67 523.38 234.64 515.59 234.62 Z" />
<path fill="#663e21" opacity="1.00" d=" M 814.39 304.44 C 814.41 247.19 814.32 189.93 814.47 132.68 C 840.64 132.58 866.82 132.59 892.99 132.68 C 907.10 132.96 922.29 136.06 932.62 146.39 C 942.16 154.80 949.01 166.37 950.87 179.02 C 953.58 194.79 950.73 212.06 940.95 225.01 C 934.82 233.19 926.67 240.19 916.92 243.61 C 900.36 249.56 882.53 247.07 865.33 247.88 C 864.98 261.24 865.43 274.61 865.10 287.97 C 864.82 293.48 865.65 299.02 864.74 304.50 C 847.95 304.55 831.17 304.71 814.39 304.44 M 864.80 170.58 C 864.85 183.55 864.81 196.51 864.78 209.48 C 868.09 210.47 871.57 210.42 874.98 209.92 C 880.82 209.31 887.54 210.45 892.35 206.24 C 903.57 198.99 902.97 179.36 890.90 173.26 C 882.92 169.04 873.47 170.63 864.80 170.58 Z" />
</g>
</svg>
