<?xml version="1.0" encoding="UTF-8" ?>
<!DOCTYPE svg PUBLIC "-//W3C//DTD SVG 1.1//EN" "http://www.w3.org/Graphics/SVG/1.1/DTD/svg11.dtd">
<svg width="2165pt" height="496pt" viewBox="0 0 2165 496" version="1.1" xmlns="http://www.w3.org/2000/svg">
<g id="#0396bfff">
<path fill="#0396bf" opacity="1.00" d=" M 235.38 20.63 C 249.92 16.51 267.52 23.50 273.03 37.99 C 280.73 54.36 270.15 76.58 252.10 79.90 C 247.08 80.15 242.01 80.56 237.01 79.81 C 225.47 76.80 216.51 66.22 214.58 54.61 C 212.14 40.13 221.95 25.63 235.38 20.63 Z" />
<path fill="#0396bf" opacity="1.00" d=" M 1583.19 132.29 C 1608.64 132.43 1634.10 132.41 1659.55 132.36 C 1675.05 162.16 1687.70 193.35 1702.92 223.32 C 1707.58 220.06 1707.14 213.62 1709.92 209.07 C 1719.51 183.68 1730.19 158.59 1738.08 132.60 C 1762.63 132.71 1787.24 132.14 1811.76 132.83 C 1780.83 200.97 1750.34 269.25 1719.50 337.42 C 1715.45 345.52 1712.78 354.30 1707.96 362.01 C 1698.95 361.91 1689.95 362.06 1680.95 361.95 C 1674.69 361.08 1668.23 360.14 1662.03 361.92 C 1653.86 362.08 1645.67 361.99 1637.50 361.90 C 1645.16 342.00 1655.68 323.33 1665.45 304.41 C 1666.30 302.15 1668.26 299.84 1667.63 297.32 C 1642.57 249.64 1617.70 201.89 1592.85 154.09 C 1590.05 146.62 1583.39 140.61 1583.19 132.29 Z" />
<path fill="#0396bf" opacity="1.00" d=" M 1847.24 135.31 C 1848.94 132.39 1852.98 132.62 1855.95 132.38 C 1875.49 132.52 1895.04 132.08 1914.57 132.55 C 1916.32 134.85 1916.52 138.01 1917.66 140.66 C 1927.98 178.22 1938.98 215.58 1950.36 252.81 C 1952.26 256.81 1951.04 261.97 1954.78 265.04 C 1959.43 254.71 1961.01 243.30 1964.47 232.55 C 1972.86 203.78 1981.42 175.06 1989.11 146.11 C 1990.78 141.49 1990.82 136.25 1994.36 132.44 C 2016.17 132.55 2037.98 132.38 2059.78 132.18 C 2060.18 133.17 2060.58 134.17 2060.98 135.18 C 2071.47 210.89 2082.61 286.38 2094.02 361.97 C 2072.24 361.95 2050.45 362.06 2028.67 361.92 C 2025.73 328.87 2020.81 296.00 2016.71 263.03 C 2016.34 254.85 2015.37 246.69 2013.45 238.76 C 2008.59 249.80 2005.97 261.57 2002.27 273.01 C 1994.44 300.45 1986.16 327.73 1978.50 355.21 C 1977.68 358.14 1977.40 363.15 1973.04 362.00 C 1959.46 360.89 1945.59 363.54 1932.23 360.84 C 1922.46 329.52 1913.81 297.87 1904.32 266.46 C 1901.40 257.28 1900.05 247.56 1895.83 238.82 C 1892.31 249.39 1892.79 260.77 1890.65 271.62 C 1887.62 301.62 1882.40 331.26 1879.27 361.23 C 1858.00 362.49 1836.59 361.85 1815.24 361.96 C 1815.99 346.90 1819.50 332.15 1821.06 317.20 C 1830.05 256.63 1839.43 196.00 1847.24 135.31 Z" />
<path fill="#0396bf" opacity="1.00" d=" M 1569.31 263.24 C 1579.23 261.46 1590.64 263.47 1597.42 271.50 C 1605.88 279.28 1609.20 292.39 1605.34 303.20 C 1600.47 316.11 1586.88 325.24 1573.00 324.23 C 1558.39 322.50 1545.19 309.07 1545.95 294.00 C 1544.48 279.91 1555.24 265.53 1569.31 263.24 Z" />
</g>
<g id="#663e21ff">
<path fill="#663e21" opacity="1.00" d=" M 203.41 138.36 C 204.40 135.85 205.50 132.12 208.97 132.68 C 234.98 132.78 261.00 132.57 287.00 133.06 C 289.60 138.74 291.38 144.74 293.41 150.63 C 307.24 191.75 322.63 232.33 336.59 273.41 C 347.31 302.81 357.97 332.24 367.58 362.02 C 345.04 362.21 322.50 362.14 299.96 362.17 C 297.72 362.41 295.47 361.26 295.06 358.91 C 291.46 347.14 287.65 335.43 284.38 323.57 C 269.02 321.11 253.46 323.00 238.00 322.58 C 228.24 322.18 218.41 322.01 208.74 323.54 C 204.79 336.39 200.74 349.27 195.98 361.84 C 173.64 362.40 151.29 361.84 128.95 362.13 C 127.47 362.04 125.54 362.50 124.58 361.00 C 131.69 337.92 140.76 315.49 148.63 292.66 C 166.99 241.25 184.92 189.71 203.41 138.36 M 245.69 192.78 C 239.00 219.29 229.14 244.95 223.15 271.61 C 238.74 271.91 254.34 271.76 269.93 271.67 C 265.07 248.83 256.03 227.09 250.31 204.43 C 249.03 200.48 248.38 196.08 245.69 192.78 Z" />
<path fill="#663e21" opacity="1.00" d=" M 386.99 133.07 C 409.39 132.49 431.83 132.56 454.24 132.74 C 454.40 159.50 454.21 186.26 454.35 213.02 C 454.33 216.31 454.72 219.61 455.81 222.73 C 474.76 196.39 493.57 169.93 512.42 143.53 C 515.91 139.02 519.22 131.72 526.00 132.64 C 550.06 132.68 574.14 132.81 598.19 133.16 C 596.85 136.86 593.92 139.58 591.57 142.63 C 565.77 175.15 540.22 207.87 514.39 240.37 C 512.93 242.03 511.95 244.48 513.57 246.40 C 542.80 284.98 572.58 323.20 601.24 362.20 C 574.47 362.06 547.70 362.26 520.94 362.11 C 515.96 362.13 514.03 356.80 511.57 353.40 C 493.47 325.93 475.03 298.65 456.61 271.41 C 456.03 271.34 454.88 271.19 454.30 271.12 C 454.25 301.37 454.40 331.63 454.19 361.88 C 431.70 362.22 409.21 361.96 386.73 362.02 C 386.95 285.70 386.69 209.38 386.99 133.07 Z" />
<path fill="#663e21" opacity="1.00" d=" M 620.16 132.84 C 659.76 133.33 699.36 132.27 738.97 132.75 C 752.82 133.06 767.27 135.15 779.00 143.05 C 796.31 154.98 805.57 177.32 802.16 198.01 C 800.51 216.71 785.25 231.27 768.88 238.56 C 769.61 240.85 772.22 241.04 774.16 241.78 C 789.75 246.56 803.15 257.83 810.72 272.27 C 821.55 296.29 815.05 326.82 795.41 344.40 C 782.60 358.06 762.91 361.51 744.99 362.05 C 703.42 362.29 661.83 362.23 620.26 362.06 C 619.84 285.67 620.03 209.23 620.16 132.84 M 688.33 178.14 C 686.43 192.89 687.46 207.82 687.39 222.66 C 696.92 222.93 706.47 222.59 716.01 222.74 C 726.56 222.90 738.03 216.42 740.43 205.57 C 742.32 194.04 734.12 181.30 722.15 179.93 C 711.14 176.80 699.61 178.38 688.33 178.14 M 688.24 269.27 C 686.16 284.59 687.58 300.32 687.43 315.79 L 688.46 315.76 L 687.51 316.74 C 693.82 317.18 700.16 317.12 706.48 316.84 L 705.52 316.18 C 712.98 315.58 720.57 316.11 727.99 314.64 C 737.64 313.88 747.27 306.19 747.60 296.04 C 747.59 290.85 748.53 285.06 745.48 280.49 C 740.42 273.81 732.02 270.59 723.98 269.37 C 712.07 269.12 700.15 269.28 688.24 269.27 Z" />
<path fill="#663e21" opacity="1.00" d=" M 905.06 132.77 C 931.39 133.22 957.73 132.49 984.06 132.69 C 986.22 132.52 986.53 135.20 987.34 136.64 C 1007.35 193.81 1027.58 250.90 1048.13 307.87 C 1053.81 326.13 1061.41 343.78 1066.61 362.18 C 1042.78 362.18 1018.95 362.09 995.13 361.91 C 990.87 349.12 987.27 336.11 982.88 323.36 C 961.64 321.09 940.29 323.33 919.01 322.35 C 915.20 322.24 911.46 322.99 907.75 323.69 C 903.03 336.33 899.77 349.45 895.07 362.10 C 875.38 361.88 855.69 362.33 836.00 362.19 C 831.73 362.00 827.28 362.90 823.21 361.27 C 843.97 301.32 866.15 241.85 886.82 181.86 C 893.22 165.62 897.80 148.64 905.06 132.77 M 944.35 195.00 C 940.83 204.63 938.49 214.65 935.47 224.45 C 931.24 240.23 924.94 255.47 922.12 271.62 C 936.75 271.91 951.40 271.75 966.03 271.69 C 969.58 272.18 968.09 268.16 967.57 266.20 C 961.52 243.23 953.69 220.74 947.03 197.93 C 946.47 196.85 945.71 192.37 944.35 195.00 Z" />
<path fill="#663e21" opacity="1.00" d=" M 1086.00 132.93 C 1113.99 132.40 1142.01 132.90 1170.01 132.71 C 1185.58 132.73 1201.44 132.18 1216.62 136.29 C 1230.16 139.87 1242.40 147.96 1251.16 158.86 C 1277.18 188.67 1274.99 238.88 1245.86 265.89 C 1231.90 280.86 1210.74 285.77 1190.99 286.29 C 1178.81 286.37 1166.62 286.00 1154.45 286.49 C 1152.63 311.54 1154.56 336.78 1153.07 361.85 C 1130.66 362.39 1108.24 362.12 1085.83 361.91 C 1085.83 285.59 1085.81 209.26 1086.00 132.93 M 1153.53 183.55 C 1153.20 200.58 1153.43 217.65 1153.43 234.69 C 1162.40 237.49 1172.88 234.82 1182.32 234.18 C 1200.98 230.00 1206.08 202.84 1192.50 190.65 C 1181.70 181.43 1166.68 183.11 1153.53 183.55 Z" />
<path fill="#663e21" opacity="1.00" d=" M 1299.21 133.06 C 1320.46 132.23 1341.75 133.11 1363.02 132.83 C 1365.48 132.50 1365.21 135.33 1365.29 136.96 C 1365.16 176.31 1365.37 215.66 1365.31 255.00 C 1365.32 258.13 1364.90 261.24 1364.50 264.34 C 1366.05 262.97 1367.52 261.49 1368.70 259.76 C 1389.58 226.43 1411.25 193.58 1432.39 160.39 C 1438.63 151.17 1444.02 141.37 1450.99 132.65 C 1472.97 132.73 1494.98 132.47 1516.94 133.10 C 1517.52 209.35 1517.43 285.66 1516.75 361.91 C 1494.93 362.31 1473.08 362.14 1451.27 361.93 C 1451.53 318.73 1450.58 275.52 1451.11 232.32 C 1445.89 237.25 1442.53 243.75 1438.78 249.78 C 1416.72 284.69 1393.91 319.13 1372.34 354.34 C 1370.31 356.86 1369.03 360.63 1365.96 361.91 C 1343.73 362.26 1321.46 362.13 1299.22 362.01 C 1299.25 285.70 1299.13 209.38 1299.21 133.06 Z" />
</g>
<g id="#947661ff">
<path fill="#947661" opacity="1.00" d=" M 688.46 315.76 C 694.14 315.78 699.88 315.26 705.52 316.18 L 706.48 316.84 C 700.16 317.12 693.82 317.18 687.51 316.74 L 688.46 315.76 Z" />
</g>
</svg>
